<mxfile host="app.diagrams.net" modified="2024-06-05T05:50:49.994Z" agent="Mozilla/5.0 (Windows NT 10.0; Win64; x64) AppleWebKit/537.36 (KHTML, like Gecko) Chrome/125.0.0.0 Safari/537.36" etag="nSjZitRt4tqHoMX9uun5" version="24.4.13" type="device">
  <diagram name="Page-1" id="_OrUQGFiRXYFzVQVvud9">
    <mxGraphModel dx="1434" dy="738" grid="1" gridSize="10" guides="1" tooltips="1" connect="1" arrows="1" fold="1" page="1" pageScale="1" pageWidth="850" pageHeight="1100" math="0" shadow="0">
      <root>
        <mxCell id="0" />
        <mxCell id="1" parent="0" />
        <mxCell id="3VKDKy7je-9GJpuhGmXI-30" value="DbContext" style="rounded=0;whiteSpace=wrap;html=1;verticalAlign=top;" vertex="1" parent="1">
          <mxGeometry x="360" y="100" width="160" height="280" as="geometry" />
        </mxCell>
        <mxCell id="3VKDKy7je-9GJpuhGmXI-9" style="edgeStyle=orthogonalEdgeStyle;rounded=0;orthogonalLoop=1;jettySize=auto;html=1;exitX=1;exitY=0.5;exitDx=0;exitDy=0;entryX=0;entryY=0.5;entryDx=0;entryDy=0;" edge="1" parent="1" source="3VKDKy7je-9GJpuhGmXI-2" target="3VKDKy7je-9GJpuhGmXI-3">
          <mxGeometry relative="1" as="geometry" />
        </mxCell>
        <mxCell id="3VKDKy7je-9GJpuhGmXI-13" value="Create Message (s)" style="edgeLabel;html=1;align=center;verticalAlign=middle;resizable=0;points=[];" vertex="1" connectable="0" parent="3VKDKy7je-9GJpuhGmXI-9">
          <mxGeometry x="-0.2833" y="1" relative="1" as="geometry">
            <mxPoint x="17" y="1" as="offset" />
          </mxGeometry>
        </mxCell>
        <mxCell id="3VKDKy7je-9GJpuhGmXI-2" value="ProducerService" style="rounded=0;whiteSpace=wrap;html=1;" vertex="1" parent="1">
          <mxGeometry x="120" y="220" width="120" height="60" as="geometry" />
        </mxCell>
        <mxCell id="3VKDKy7je-9GJpuhGmXI-11" style="edgeStyle=orthogonalEdgeStyle;rounded=0;orthogonalLoop=1;jettySize=auto;html=1;exitX=1;exitY=0.25;exitDx=0;exitDy=0;entryX=0;entryY=0.25;entryDx=0;entryDy=0;" edge="1" parent="1" source="3VKDKy7je-9GJpuhGmXI-3" target="3VKDKy7je-9GJpuhGmXI-8">
          <mxGeometry relative="1" as="geometry" />
        </mxCell>
        <mxCell id="3VKDKy7je-9GJpuhGmXI-14" value="Fetch Message" style="edgeLabel;html=1;align=center;verticalAlign=middle;resizable=0;points=[];" vertex="1" connectable="0" parent="3VKDKy7je-9GJpuhGmXI-11">
          <mxGeometry x="-0.2444" y="-1" relative="1" as="geometry">
            <mxPoint x="12" as="offset" />
          </mxGeometry>
        </mxCell>
        <mxCell id="3VKDKy7je-9GJpuhGmXI-3" value="consumer_messages" style="rounded=0;whiteSpace=wrap;html=1;" vertex="1" parent="1">
          <mxGeometry x="380" y="220" width="120" height="60" as="geometry" />
        </mxCell>
        <mxCell id="3VKDKy7je-9GJpuhGmXI-4" value="poisoned_messages" style="rounded=0;whiteSpace=wrap;html=1;" vertex="1" parent="1">
          <mxGeometry x="380" y="300" width="120" height="60" as="geometry" />
        </mxCell>
        <mxCell id="3VKDKy7je-9GJpuhGmXI-18" style="edgeStyle=orthogonalEdgeStyle;rounded=0;orthogonalLoop=1;jettySize=auto;html=1;exitX=1;exitY=0.25;exitDx=0;exitDy=0;entryX=0;entryY=0.25;entryDx=0;entryDy=0;" edge="1" parent="1" source="3VKDKy7je-9GJpuhGmXI-5" target="3VKDKy7je-9GJpuhGmXI-7">
          <mxGeometry relative="1" as="geometry" />
        </mxCell>
        <mxCell id="3VKDKy7je-9GJpuhGmXI-20" value="Fetch Message" style="edgeLabel;html=1;align=center;verticalAlign=middle;resizable=0;points=[];" vertex="1" connectable="0" parent="3VKDKy7je-9GJpuhGmXI-18">
          <mxGeometry x="-0.0333" y="1" relative="1" as="geometry">
            <mxPoint as="offset" />
          </mxGeometry>
        </mxCell>
        <mxCell id="3VKDKy7je-9GJpuhGmXI-5" value="scheduled_messages" style="rounded=0;whiteSpace=wrap;html=1;" vertex="1" parent="1">
          <mxGeometry x="380" y="140" width="120" height="60" as="geometry" />
        </mxCell>
        <mxCell id="3VKDKy7je-9GJpuhGmXI-22" style="edgeStyle=orthogonalEdgeStyle;rounded=0;orthogonalLoop=1;jettySize=auto;html=1;exitX=1;exitY=0.5;exitDx=0;exitDy=0;entryX=0;entryY=0.5;entryDx=0;entryDy=0;" edge="1" parent="1" source="3VKDKy7je-9GJpuhGmXI-6" target="3VKDKy7je-9GJpuhGmXI-5">
          <mxGeometry relative="1" as="geometry" />
        </mxCell>
        <mxCell id="3VKDKy7je-9GJpuhGmXI-23" value="Create Message" style="edgeLabel;html=1;align=center;verticalAlign=middle;resizable=0;points=[];" vertex="1" connectable="0" parent="3VKDKy7je-9GJpuhGmXI-22">
          <mxGeometry x="-0.2429" relative="1" as="geometry">
            <mxPoint x="7" as="offset" />
          </mxGeometry>
        </mxCell>
        <mxCell id="3VKDKy7je-9GJpuhGmXI-6" value="ScheduleService" style="rounded=0;whiteSpace=wrap;html=1;" vertex="1" parent="1">
          <mxGeometry x="120" y="140" width="120" height="60" as="geometry" />
        </mxCell>
        <mxCell id="3VKDKy7je-9GJpuhGmXI-7" value="ScheduledMessageProcessor" style="rounded=0;whiteSpace=wrap;html=1;" vertex="1" parent="1">
          <mxGeometry x="680" y="140" width="200" height="60" as="geometry" />
        </mxCell>
        <mxCell id="3VKDKy7je-9GJpuhGmXI-12" style="edgeStyle=orthogonalEdgeStyle;rounded=0;orthogonalLoop=1;jettySize=auto;html=1;exitX=0;exitY=0.5;exitDx=0;exitDy=0;entryX=1;entryY=0.5;entryDx=0;entryDy=0;" edge="1" parent="1" source="3VKDKy7je-9GJpuhGmXI-8" target="3VKDKy7je-9GJpuhGmXI-3">
          <mxGeometry relative="1" as="geometry" />
        </mxCell>
        <mxCell id="3VKDKy7je-9GJpuhGmXI-15" value="(fail) increment attempts" style="edgeLabel;html=1;align=center;verticalAlign=middle;resizable=0;points=[];" vertex="1" connectable="0" parent="3VKDKy7je-9GJpuhGmXI-12">
          <mxGeometry x="0.3889" y="-1" relative="1" as="geometry">
            <mxPoint x="25" as="offset" />
          </mxGeometry>
        </mxCell>
        <mxCell id="3VKDKy7je-9GJpuhGmXI-16" style="edgeStyle=orthogonalEdgeStyle;rounded=0;orthogonalLoop=1;jettySize=auto;html=1;exitX=0.25;exitY=1;exitDx=0;exitDy=0;entryX=1;entryY=0.5;entryDx=0;entryDy=0;" edge="1" parent="1" source="3VKDKy7je-9GJpuhGmXI-8" target="3VKDKy7je-9GJpuhGmXI-4">
          <mxGeometry relative="1" as="geometry" />
        </mxCell>
        <mxCell id="3VKDKy7je-9GJpuhGmXI-17" value="(fail) max attempts" style="edgeLabel;html=1;align=center;verticalAlign=middle;resizable=0;points=[];" vertex="1" connectable="0" parent="3VKDKy7je-9GJpuhGmXI-16">
          <mxGeometry x="0.4143" relative="1" as="geometry">
            <mxPoint as="offset" />
          </mxGeometry>
        </mxCell>
        <mxCell id="3VKDKy7je-9GJpuhGmXI-26" style="edgeStyle=orthogonalEdgeStyle;rounded=0;orthogonalLoop=1;jettySize=auto;html=1;exitX=0.71;exitY=1.017;exitDx=0;exitDy=0;entryX=0.5;entryY=0;entryDx=0;entryDy=0;exitPerimeter=0;" edge="1" parent="1" source="3VKDKy7je-9GJpuhGmXI-8" target="3VKDKy7je-9GJpuhGmXI-24">
          <mxGeometry relative="1" as="geometry" />
        </mxCell>
        <mxCell id="3VKDKy7je-9GJpuhGmXI-27" value="Process Message" style="edgeLabel;html=1;align=center;verticalAlign=middle;resizable=0;points=[];" vertex="1" connectable="0" parent="3VKDKy7je-9GJpuhGmXI-26">
          <mxGeometry x="-0.15" relative="1" as="geometry">
            <mxPoint y="4" as="offset" />
          </mxGeometry>
        </mxCell>
        <mxCell id="3VKDKy7je-9GJpuhGmXI-34" style="edgeStyle=orthogonalEdgeStyle;rounded=0;orthogonalLoop=1;jettySize=auto;html=1;exitX=0;exitY=0.75;exitDx=0;exitDy=0;entryX=1;entryY=0.75;entryDx=0;entryDy=0;" edge="1" parent="1" source="3VKDKy7je-9GJpuhGmXI-8" target="3VKDKy7je-9GJpuhGmXI-3">
          <mxGeometry relative="1" as="geometry" />
        </mxCell>
        <mxCell id="3VKDKy7je-9GJpuhGmXI-35" value="(success) delete message" style="edgeLabel;html=1;align=center;verticalAlign=middle;resizable=0;points=[];" vertex="1" connectable="0" parent="3VKDKy7je-9GJpuhGmXI-34">
          <mxGeometry x="0.5667" y="-4" relative="1" as="geometry">
            <mxPoint x="41" as="offset" />
          </mxGeometry>
        </mxCell>
        <mxCell id="3VKDKy7je-9GJpuhGmXI-8" value="ConsumerMessageProcessor" style="rounded=0;whiteSpace=wrap;html=1;" vertex="1" parent="1">
          <mxGeometry x="680" y="220" width="200" height="60" as="geometry" />
        </mxCell>
        <mxCell id="3VKDKy7je-9GJpuhGmXI-19" style="edgeStyle=orthogonalEdgeStyle;rounded=0;orthogonalLoop=1;jettySize=auto;html=1;exitX=0;exitY=0.75;exitDx=0;exitDy=0;entryX=1.008;entryY=0.117;entryDx=0;entryDy=0;entryPerimeter=0;" edge="1" parent="1" source="3VKDKy7je-9GJpuhGmXI-7" target="3VKDKy7je-9GJpuhGmXI-3">
          <mxGeometry relative="1" as="geometry">
            <Array as="points">
              <mxPoint x="530" y="185" />
              <mxPoint x="530" y="227" />
            </Array>
          </mxGeometry>
        </mxCell>
        <mxCell id="3VKDKy7je-9GJpuhGmXI-21" value="Write Message (s)" style="edgeLabel;html=1;align=center;verticalAlign=middle;resizable=0;points=[];" vertex="1" connectable="0" parent="3VKDKy7je-9GJpuhGmXI-19">
          <mxGeometry x="-0.0318" y="1" relative="1" as="geometry">
            <mxPoint x="17" as="offset" />
          </mxGeometry>
        </mxCell>
        <mxCell id="3VKDKy7je-9GJpuhGmXI-24" value="Consumers" style="rounded=0;whiteSpace=wrap;html=1;" vertex="1" parent="1">
          <mxGeometry x="760" y="320" width="120" height="60" as="geometry" />
        </mxCell>
      </root>
    </mxGraphModel>
  </diagram>
</mxfile>
